<svg xmlns="http://www.w3.org/2000/svg" xmlns:xlink="http://www.w3.org/1999/xlink" width="100" zoomAndPan="magnify" viewBox="0 0 75 74.999997" height="100" preserveAspectRatio="xMidYMid meet" version="1.0"><defs><g/><clipPath id="986f5fdb42"><path d="M 2.550781 2.550781 L 72.300781 2.550781 L 72.300781 72.300781 L 2.550781 72.300781 Z M 2.550781 2.550781 " clip-rule="nonzero"/></clipPath></defs><g fill="#6d5825" fill-opacity="1"><g transform="translate(50.457638, 67.653356)"><g><path d="M 0.453125 -0.5625 C 0.453125 -0.78125 0.507812 -0.941406 0.625 -1.046875 C 0.75 -1.160156 0.921875 -1.21875 1.140625 -1.21875 C 1.359375 -1.21875 1.523438 -1.160156 1.640625 -1.046875 C 1.765625 -0.929688 1.828125 -0.769531 1.828125 -0.5625 C 1.828125 -0.351562 1.765625 -0.1875 1.640625 -0.0625 C 1.523438 0.0507812 1.359375 0.109375 1.140625 0.109375 C 0.921875 0.109375 0.75 0.0507812 0.625 -0.0625 C 0.507812 -0.1875 0.453125 -0.351562 0.453125 -0.5625 Z M 0.453125 -0.5625 "/></g></g></g><g clip-path="url(#986f5fdb42)"><path fill="#ffffff" d="M 2.550781 37.496094 C 2.550781 56.792969 18.195312 72.441406 37.496094 72.441406 C 56.792969 72.441406 72.441406 56.792969 72.441406 37.496094 C 72.441406 18.195312 56.792969 2.550781 37.496094 2.550781 C 18.195312 2.550781 2.550781 18.195312 2.550781 37.496094 Z M 67.199219 37.496094 C 67.199219 53.898438 53.898438 67.199219 37.496094 67.199219 C 21.089844 67.199219 7.792969 53.898438 7.792969 37.496094 C 7.792969 21.089844 21.089844 7.792969 37.496094 7.792969 C 53.898438 7.792969 67.199219 21.089844 67.199219 37.496094 Z M 34 35.746094 C 34 33.816406 35.566406 32.253906 37.496094 32.253906 C 39.425781 32.253906 40.988281 33.816406 40.988281 35.746094 L 40.988281 51.472656 C 40.988281 53.402344 39.425781 54.96875 37.496094 54.96875 C 35.566406 54.96875 34 53.402344 34 51.472656 Z M 41.863281 23.515625 C 41.863281 25.929688 39.90625 27.886719 37.496094 27.886719 C 35.082031 27.886719 33.125 25.929688 33.125 23.515625 C 33.125 21.105469 35.082031 19.148438 37.496094 19.148438 C 39.90625 19.148438 41.863281 21.105469 41.863281 23.515625 Z M 41.863281 23.515625 " fill-opacity="1" fill-rule="evenodd"/></g></svg>