<svg xmlns="http://www.w3.org/2000/svg" xmlns:xlink="http://www.w3.org/1999/xlink" width="500" zoomAndPan="magnify" viewBox="0 0 375 374.999991" height="500" preserveAspectRatio="xMidYMid meet" version="1.0"><defs><g/><clipPath id="e7c34ab2d6"><path d="M 69.789062 72.460938 L 300.039062 72.460938 L 300.039062 302.710938 L 69.789062 302.710938 Z M 69.789062 72.460938 " clip-rule="nonzero"/></clipPath><clipPath id="5a6db49c30"><path d="M 69.789062 150 L 300.039062 150 L 300.039062 219 L 69.789062 219 Z M 69.789062 150 " clip-rule="nonzero"/></clipPath><clipPath id="416d176d47"><path d="M 96 259 L 202 259 L 202 302.710938 L 96 302.710938 Z M 96 259 " clip-rule="nonzero"/></clipPath></defs><g clip-path="url(#e7c34ab2d6)"><path fill="#fa9f5e" d="M 300.039062 187.578125 C 300.039062 189.460938 299.996094 191.347656 299.902344 193.226562 C 299.808594 195.109375 299.671875 196.988281 299.484375 198.863281 C 299.300781 200.738281 299.070312 202.605469 298.792969 204.46875 C 298.519531 206.332031 298.195312 208.1875 297.828125 210.039062 C 297.460938 211.886719 297.046875 213.722656 296.589844 215.550781 C 296.132812 217.378906 295.628906 219.191406 295.082031 220.996094 C 294.535156 222.796875 293.945312 224.585938 293.3125 226.359375 C 292.675781 228.136719 292 229.890625 291.277344 231.632812 C 290.558594 233.375 289.792969 235.09375 288.988281 236.796875 C 288.183594 238.5 287.335938 240.183594 286.449219 241.84375 C 285.558594 243.507812 284.632812 245.144531 283.664062 246.761719 C 282.695312 248.378906 281.6875 249.96875 280.640625 251.535156 C 279.59375 253.101562 278.507812 254.640625 277.386719 256.15625 C 276.265625 257.667969 275.105469 259.152344 273.910156 260.609375 C 272.714844 262.066406 271.484375 263.492188 270.21875 264.886719 C 268.953125 266.285156 267.65625 267.648438 266.324219 268.980469 C 264.992188 270.3125 263.628906 271.609375 262.230469 272.875 C 260.835938 274.140625 259.410156 275.371094 257.953125 276.566406 C 256.496094 277.761719 255.011719 278.921875 253.5 280.042969 C 251.984375 281.164062 250.445312 282.25 248.878906 283.296875 C 247.3125 284.34375 245.722656 285.351562 244.105469 286.320312 C 242.488281 287.289062 240.851562 288.214844 239.1875 289.105469 C 237.527344 289.992188 235.84375 290.839844 234.140625 291.644531 C 232.4375 292.449219 230.71875 293.214844 228.976562 293.933594 C 227.234375 294.65625 225.480469 295.332031 223.703125 295.96875 C 221.929688 296.601562 220.140625 297.191406 218.339844 297.738281 C 216.535156 298.285156 214.722656 298.789062 212.894531 299.246094 C 211.066406 299.703125 209.230469 300.117188 207.382812 300.484375 C 205.535156 300.851562 203.679688 301.175781 201.8125 301.449219 C 199.949219 301.726562 198.082031 301.957031 196.207031 302.144531 C 194.332031 302.328125 192.453125 302.464844 190.570312 302.558594 C 188.6875 302.652344 186.804688 302.695312 184.921875 302.695312 C 183.039062 302.695312 181.15625 302.652344 179.273438 302.558594 C 177.390625 302.464844 175.515625 302.328125 173.640625 302.144531 C 171.765625 301.957031 169.894531 301.726562 168.03125 301.449219 C 166.167969 301.175781 164.3125 300.851562 162.464844 300.484375 C 160.617188 300.117188 158.777344 299.703125 156.949219 299.246094 C 155.125 298.789062 153.308594 298.285156 151.503906 297.738281 C 149.703125 297.191406 147.914062 296.601562 146.140625 295.96875 C 144.367188 295.332031 142.609375 294.65625 140.867188 293.933594 C 139.128906 293.214844 137.40625 292.449219 135.703125 291.644531 C 134 290.839844 132.316406 289.992188 130.65625 289.105469 C 128.996094 288.214844 127.355469 287.289062 125.738281 286.320312 C 124.125 285.351562 122.53125 284.34375 120.964844 283.296875 C 119.398438 282.25 117.859375 281.164062 116.347656 280.042969 C 114.832031 278.921875 113.347656 277.761719 111.890625 276.566406 C 110.4375 275.371094 109.011719 274.140625 107.613281 272.875 C 106.21875 271.609375 104.855469 270.3125 103.523438 268.980469 C 102.191406 267.648438 100.890625 266.285156 99.625 264.886719 C 98.359375 263.492188 97.128906 262.066406 95.933594 260.609375 C 94.738281 259.152344 93.582031 257.667969 92.457031 256.15625 C 91.335938 254.640625 90.253906 253.101562 89.207031 251.535156 C 88.160156 249.96875 87.152344 248.378906 86.183594 246.761719 C 85.214844 245.144531 84.285156 243.507812 83.398438 241.84375 C 82.507812 240.183594 81.664062 238.5 80.855469 236.796875 C 80.050781 235.09375 79.289062 233.375 78.566406 231.632812 C 77.847656 229.890625 77.167969 228.132812 76.535156 226.359375 C 75.898438 224.585938 75.308594 222.796875 74.761719 220.996094 C 74.214844 219.191406 73.710938 217.378906 73.253906 215.550781 C 72.796875 213.722656 72.382812 211.886719 72.015625 210.039062 C 71.648438 208.1875 71.328125 206.332031 71.050781 204.46875 C 70.773438 202.605469 70.542969 200.738281 70.359375 198.863281 C 70.175781 196.988281 70.035156 195.109375 69.941406 193.226562 C 69.851562 191.347656 69.804688 189.460938 69.804688 187.578125 C 69.804688 185.695312 69.851562 183.8125 69.941406 181.929688 C 70.035156 180.046875 70.175781 178.171875 70.359375 176.296875 C 70.542969 174.421875 70.773438 172.550781 71.050781 170.6875 C 71.328125 168.824219 71.648438 166.96875 72.015625 165.121094 C 72.382812 163.273438 72.796875 161.433594 73.253906 159.605469 C 73.710938 157.78125 74.214844 155.964844 74.761719 154.160156 C 75.308594 152.359375 75.898438 150.570312 76.535156 148.796875 C 77.167969 147.023438 77.847656 145.265625 78.566406 143.523438 C 79.289062 141.785156 80.050781 140.0625 80.855469 138.359375 C 81.664062 136.65625 82.507812 134.972656 83.398438 133.3125 C 84.285156 131.652344 85.214844 130.011719 86.183594 128.394531 C 87.152344 126.78125 88.160156 125.1875 89.207031 123.621094 C 90.253906 122.054688 91.335938 120.515625 92.457031 119.003906 C 93.582031 117.488281 94.738281 116.003906 95.933594 114.546875 C 97.128906 113.09375 98.359375 111.667969 99.625 110.269531 C 100.890625 108.875 102.191406 107.511719 103.523438 106.179688 C 104.855469 104.847656 106.21875 103.546875 107.613281 102.28125 C 109.011719 101.015625 110.4375 99.785156 111.890625 98.589844 C 113.347656 97.394531 114.832031 96.238281 116.347656 95.113281 C 117.859375 93.992188 119.398438 92.910156 120.964844 91.863281 C 122.53125 90.816406 124.125 89.808594 125.738281 88.839844 C 127.355469 87.871094 128.996094 86.941406 130.65625 86.054688 C 132.316406 85.164062 134 84.320312 135.703125 83.511719 C 137.40625 82.707031 139.128906 81.945312 140.867188 81.222656 C 142.609375 80.503906 144.367188 79.824219 146.140625 79.191406 C 147.914062 78.554688 149.703125 77.964844 151.503906 77.417969 C 153.308594 76.871094 155.125 76.367188 156.949219 75.910156 C 158.777344 75.453125 160.617188 75.039062 162.464844 74.671875 C 164.3125 74.304688 166.167969 73.984375 168.03125 73.707031 C 169.894531 73.429688 171.765625 73.199219 173.636719 73.015625 C 175.511719 72.832031 177.390625 72.691406 179.273438 72.597656 C 181.15625 72.507812 183.039062 72.460938 184.921875 72.460938 C 186.804688 72.460938 188.6875 72.507812 190.570312 72.597656 C 192.453125 72.691406 194.332031 72.832031 196.207031 73.015625 C 198.082031 73.199219 199.949219 73.429688 201.8125 73.707031 C 203.679688 73.984375 205.535156 74.304688 207.382812 74.671875 C 209.230469 75.039062 211.066406 75.453125 212.894531 75.910156 C 214.722656 76.367188 216.535156 76.871094 218.339844 77.417969 C 220.140625 77.964844 221.929688 78.554688 223.703125 79.191406 C 225.480469 79.824219 227.234375 80.503906 228.976562 81.222656 C 230.71875 81.945312 232.4375 82.707031 234.140625 83.511719 C 235.84375 84.320312 237.527344 85.164062 239.1875 86.054688 C 240.851562 86.941406 242.488281 87.871094 244.105469 88.839844 C 245.722656 89.808594 247.3125 90.816406 248.878906 91.863281 C 250.445312 92.910156 251.984375 93.992188 253.5 95.113281 C 255.011719 96.238281 256.496094 97.394531 257.953125 98.589844 C 259.410156 99.785156 260.835938 101.015625 262.230469 102.28125 C 263.628906 103.546875 264.992188 104.847656 266.324219 106.179688 C 267.65625 107.511719 268.953125 108.875 270.21875 110.269531 C 271.484375 111.667969 272.714844 113.09375 273.910156 114.546875 C 275.105469 116.003906 276.265625 117.488281 277.386719 119.003906 C 278.507812 120.515625 279.59375 122.054688 280.640625 123.621094 C 281.6875 125.1875 282.695312 126.78125 283.664062 128.394531 C 284.632812 130.011719 285.558594 131.652344 286.449219 133.3125 C 287.335938 134.972656 288.183594 136.65625 288.988281 138.359375 C 289.792969 140.0625 290.558594 141.785156 291.277344 143.523438 C 292 145.265625 292.675781 147.023438 293.3125 148.796875 C 293.945312 150.570312 294.535156 152.359375 295.082031 154.160156 C 295.628906 155.964844 296.132812 157.78125 296.589844 159.605469 C 297.046875 161.433594 297.460938 163.273438 297.828125 165.121094 C 298.195312 166.96875 298.519531 168.824219 298.792969 170.6875 C 299.070312 172.550781 299.300781 174.421875 299.484375 176.296875 C 299.671875 178.171875 299.808594 180.046875 299.902344 181.929688 C 299.996094 183.8125 300.039062 185.695312 300.039062 187.578125 Z M 300.039062 187.578125 " fill-opacity="1" fill-rule="nonzero"/></g><path fill="#f38333" d="M 112.132812 98.390625 C 120.070312 100.125 128.007812 101.875 135.964844 102.832031 C 144.117188 103.835938 152.40625 102.636719 160.511719 103.820312 C 174.746094 105.90625 188.863281 108.203125 203.050781 110.390625 C 211.25 111.640625 253.910156 110.148438 255.644531 123.714844 C 256.738281 132.125 219.402344 137.402344 211.917969 141.601562 C 187.84375 155.121094 181 154.679688 153.074219 150.832031 C 148.421875 150.195312 143.570312 148.339844 138.839844 148.414062 C 124.890625 148.660156 114.292969 157.648438 99.886719 154.484375 C 95.417969 153.496094 86.246094 149.007812 78.550781 143.519531 C 85.894531 125.828125 97.515625 110.347656 112.132812 98.390625 Z M 112.132812 98.390625 " fill-opacity="1" fill-rule="evenodd"/><g clip-path="url(#5a6db49c30)"><path fill="#da6c1e" d="M 294.003906 150.742188 C 297.925781 162.300781 300.039062 174.695312 300.039062 187.5625 L 300.039062 189.617188 C 298.6875 189.828125 297.425781 190.058594 296.238281 190.347656 C 283.859375 193.34375 274.566406 197.785156 261.589844 197.207031 C 244.390625 196.414062 230.882812 195.09375 213.941406 201.25 C 198.09375 207.015625 183.859375 218.652344 166.320312 218.40625 C 153.394531 218.226562 146.503906 211.046875 135.996094 205.238281 C 128.558594 201.128906 119.355469 199.121094 110.992188 198.042969 C 98.441406 196.414062 83.707031 201.207031 70.441406 199.835938 C 70.015625 195.808594 69.789062 191.714844 69.789062 187.5625 C 69.789062 177.28125 71.144531 167.320312 73.683594 157.828125 C 87.203125 158.636719 99.660156 163.671875 113.058594 166.636719 C 121.972656 168.597656 131.21875 168.855469 140.3125 169.402344 C 167.050781 171.03125 192.191406 165.085938 218.351562 161.648438 C 232.542969 159.777344 246.746094 163.503906 260.890625 163.121094 C 272.421875 162.804688 283.023438 155.578125 294.003906 150.742188 Z M 294.003906 150.742188 " fill-opacity="1" fill-rule="evenodd"/></g><path fill="#f38333" d="M 294.167969 223.914062 C 284.832031 251.972656 264.984375 275.246094 239.296875 289.054688 C 231.859375 285.34375 224.9375 280.113281 217.152344 277.34375 C 202.488281 272.125 147.523438 265.402344 150.183594 245.664062 C 153.058594 224.6875 199.234375 242.710938 213.894531 240.613281 C 225.394531 238.96875 235.449219 232.082031 246.929688 230.894531 C 258.976562 229.648438 270.125 233.785156 281.789062 229.800781 C 286.230469 228.308594 290.292969 226.226562 294.167969 223.914062 Z M 294.167969 223.914062 " fill-opacity="1" fill-rule="evenodd"/><path fill="#da6c1e" d="M 73.726562 217.464844 C 85.941406 216.964844 97.515625 216.003906 111.84375 218.195312 C 115.765625 218.789062 119.613281 219.320312 123.539062 219.519531 C 123.75 219.535156 128.390625 219.945312 128.269531 220.125 C 125.273438 225.980469 118.292969 227.851562 113.273438 231.351562 C 108.070312 234.96875 97.394531 243.289062 87.035156 248.140625 C 81.210938 238.742188 76.679688 228.429688 73.726562 217.464844 Z M 73.726562 217.464844 " fill-opacity="1" fill-rule="evenodd"/><g clip-path="url(#416d176d47)"><path fill="#fcbb8d" d="M 96.832031 261.691406 C 98.6875 261.023438 100.542969 260.445312 102.414062 260.035156 C 121.683594 255.671875 139.035156 269.117188 155.859375 275.792969 C 164.695312 279.289062 172.542969 280.414062 180.832031 285.585938 C 185.011719 288.203125 195.234375 294.5 201.910156 301.449219 C 196.375 302.269531 190.71875 302.695312 184.921875 302.695312 C 149.605469 302.695312 117.957031 286.757812 96.832031 261.691406 Z M 96.832031 261.691406 " fill-opacity="1" fill-rule="evenodd"/></g><path fill="#fcbb8d" d="M 228.011719 80.8125 C 242.792969 86.789062 256.054688 95.730469 267.050781 106.910156 C 257.210938 107.867188 244.191406 107.046875 238.246094 104.8125 C 232.039062 102.453125 227.339844 98.667969 220.421875 97.8125 C 216.953125 97.386719 192.875 97.191406 195.113281 91.152344 C 197.347656 85.113281 206.992188 84.976562 212.132812 84.019531 C 217.5 83.03125 222.777344 81.996094 228.011719 80.8125 Z M 228.011719 80.8125 " fill-opacity="1" fill-rule="evenodd"/><path fill="#fcbb8d" d="M 282.003906 125.738281 C 285.089844 130.515625 287.796875 135.53125 290.109375 140.75 C 283.171875 142.742188 274.230469 142.390625 268.558594 142.453125 C 266.488281 142.484375 259.722656 142.332031 259.765625 138.816406 C 259.765625 136.109375 270.792969 133.128906 272.695312 131.746094 C 275.265625 129.828125 277.804688 128.050781 280.632812 126.5 C 281.121094 126.242188 281.59375 125.980469 282.003906 125.738281 Z M 282.003906 125.738281 " fill-opacity="1" fill-rule="evenodd"/><g fill="#da6c1e" fill-opacity="1"><g transform="translate(184.828293, 177.804363)"><g><path d="M 2.28125 -2.796875 C 2.28125 -3.890625 2.570312 -4.710938 3.15625 -5.265625 C 3.75 -5.828125 4.601562 -6.109375 5.71875 -6.109375 C 6.800781 -6.109375 7.640625 -5.820312 8.234375 -5.25 C 8.828125 -4.675781 9.125 -3.859375 9.125 -2.796875 C 9.125 -1.765625 8.820312 -0.953125 8.21875 -0.359375 C 7.625 0.234375 6.789062 0.53125 5.71875 0.53125 C 4.625 0.53125 3.773438 0.238281 3.171875 -0.34375 C 2.578125 -0.925781 2.28125 -1.742188 2.28125 -2.796875 Z M 2.28125 -2.796875 "/></g></g></g></svg>