<svg xmlns="http://www.w3.org/2000/svg" xmlns:xlink="http://www.w3.org/1999/xlink" width="500" zoomAndPan="magnify" viewBox="0 0 375 374.999991" height="500" preserveAspectRatio="xMidYMid meet" version="1.0"><defs><g/><clipPath id="17507fcb4a"><path d="M 73.753906 69.988281 L 302 69.988281 L 302 297.417969 L 73.753906 297.417969 Z M 73.753906 69.988281 " clip-rule="nonzero"/></clipPath><clipPath id="4bd0978460"><path d="M 142.425781 197 L 301 197 L 301 297.417969 L 142.425781 297.417969 Z M 142.425781 197 " clip-rule="nonzero"/></clipPath><clipPath id="1b3bbea856"><path d="M 76 69.445312 L 210 69.445312 L 210 158 L 76 158 Z M 76 69.445312 " clip-rule="nonzero"/></clipPath><clipPath id="bf1a95ded4"><path d="M 153.269531 244.191406 L 252.660156 244.191406 L 252.660156 297.417969 L 153.269531 297.417969 Z M 153.269531 244.191406 " clip-rule="nonzero"/></clipPath><clipPath id="79ba31e545"><path d="M 11.40625 90 L 363.835938 90 L 363.835938 277 L 11.40625 277 Z M 11.40625 90 " clip-rule="nonzero"/></clipPath></defs><g fill="#000000" fill-opacity="1"><g transform="translate(176.09179, 166.86686)"><g><path d="M 2.28125 -2.796875 C 2.28125 -3.890625 2.570312 -4.710938 3.15625 -5.265625 C 3.75 -5.828125 4.601562 -6.109375 5.71875 -6.109375 C 6.800781 -6.109375 7.640625 -5.820312 8.234375 -5.25 C 8.828125 -4.675781 9.125 -3.859375 9.125 -2.796875 C 9.125 -1.765625 8.820312 -0.953125 8.21875 -0.359375 C 7.625 0.234375 6.789062 0.53125 5.71875 0.53125 C 4.625 0.53125 3.773438 0.238281 3.171875 -0.34375 C 2.578125 -0.925781 2.28125 -1.742188 2.28125 -2.796875 Z M 2.28125 -2.796875 "/></g></g></g><g fill="#000000" fill-opacity="1"><g transform="translate(175.415033, 174.755847)"><g><path d="M 17 0 L 15.84375 -2.96875 L 15.6875 -2.96875 C 14.6875 -1.707031 13.65625 -0.832031 12.59375 -0.34375 C 11.53125 0.144531 10.144531 0.390625 8.4375 0.390625 C 6.34375 0.390625 4.691406 -0.207031 3.484375 -1.40625 C 2.285156 -2.601562 1.6875 -4.3125 1.6875 -6.53125 C 1.6875 -8.84375 2.492188 -10.546875 4.109375 -11.640625 C 5.734375 -12.742188 8.179688 -13.359375 11.453125 -13.484375 L 15.234375 -13.59375 L 15.234375 -14.546875 C 15.234375 -16.765625 14.101562 -17.875 11.84375 -17.875 C 10.09375 -17.875 8.039062 -17.347656 5.6875 -16.296875 L 3.71875 -20.3125 C 6.226562 -21.625 9.015625 -22.28125 12.078125 -22.28125 C 15.003906 -22.28125 17.25 -21.640625 18.8125 -20.359375 C 20.375 -19.085938 21.15625 -17.148438 21.15625 -14.546875 L 21.15625 0 Z M 15.234375 -10.125 L 12.9375 -10.046875 C 11.195312 -9.992188 9.90625 -9.679688 9.0625 -9.109375 C 8.21875 -8.535156 7.796875 -7.660156 7.796875 -6.484375 C 7.796875 -4.804688 8.757812 -3.96875 10.6875 -3.96875 C 12.0625 -3.96875 13.160156 -4.363281 13.984375 -5.15625 C 14.816406 -5.945312 15.234375 -7.003906 15.234375 -8.328125 Z M 15.234375 -10.125 "/></g></g></g><g clip-path="url(#17507fcb4a)"><path fill="#f2ba77" d="M 300.886719 172.371094 C 307.152344 234.855469 261.523438 290.585938 198.96875 296.84375 C 136.417969 303.105469 80.625 257.523438 74.359375 195.035156 C 68.097656 132.550781 113.726562 76.820312 176.277344 70.5625 C 238.828125 64.300781 294.621094 109.882812 300.886719 172.371094 " fill-opacity="1" fill-rule="nonzero"/></g><path fill="#eead60" d="M 144.492188 177.574219 C 144.492188 177.574219 210.644531 173.355469 272.109375 107.5 C 263.21875 97.675781 252.65625 89.449219 240.933594 83.230469 C 227.972656 109.933594 200.710938 143.519531 144.492188 177.574219 " fill-opacity="1" fill-rule="nonzero"/><g clip-path="url(#4bd0978460)"><path fill="#e6ab61" d="M 300.660156 197.226562 C 245.871094 248.332031 183.234375 275.085938 142.679688 288.1875 C 146.175781 289.691406 149.761719 291.023438 153.417969 292.179688 C 178.4375 286.339844 221.113281 272.8125 252.277344 244.199219 C 252.277344 244.199219 238.988281 275.707031 190.058594 297.390625 C 193.011719 297.320312 195.984375 297.140625 198.96875 296.84375 C 207.597656 295.980469 215.902344 294.171875 223.800781 291.535156 C 233.949219 285.632812 243.84375 278.667969 252.792969 270.457031 C 252.792969 270.457031 250.996094 274.707031 246.308594 281.160156 C 275.988281 263.292969 296.472656 232.425781 300.660156 197.226562 " fill-opacity="1" fill-rule="nonzero"/></g><g clip-path="url(#1b3bbea856)"><path fill="#fce0bd" d="M 176.277344 70.5625 C 126.679688 75.523438 87.726562 111.589844 76.84375 157.460938 C 115.949219 136.375 168.355469 105.511719 209.125 72.019531 C 198.558594 69.992188 187.53125 69.433594 176.277344 70.5625 " fill-opacity="1" fill-rule="nonzero"/></g><path fill="#eead60" d="M 217.679688 176.902344 C 189.730469 204.6875 132.199219 227.632812 89.738281 241.777344 C 92.226562 245.957031 94.96875 249.957031 97.949219 253.753906 C 186.800781 220.390625 217.679688 176.902344 217.679688 176.902344 " fill-opacity="1" fill-rule="nonzero"/><path fill="#fabf75" d="M 294.777344 145.273438 C 263.539062 181.101562 197.898438 244.171875 108.285156 265.230469 C 114.921875 271.667969 122.328125 277.292969 130.332031 281.960938 C 134.308594 284.277344 138.429688 286.355469 142.679688 288.1875 C 183.234375 275.085938 245.871094 248.332031 300.660156 197.226562 C 301.164062 193.003906 301.433594 188.71875 301.453125 184.390625 C 301.476562 180.414062 301.289062 176.40625 300.886719 172.371094 C 299.9375 162.90625 297.847656 153.839844 294.777344 145.273438 " fill-opacity="1" fill-rule="nonzero"/><g clip-path="url(#bf1a95ded4)"><path fill="#fabf75" d="M 252.277344 244.199219 C 221.113281 272.8125 178.4375 286.339844 153.417969 292.179688 C 165.011719 295.835938 177.351562 297.675781 190.058594 297.390625 C 238.988281 275.707031 252.277344 244.199219 252.277344 244.199219 " fill-opacity="1" fill-rule="nonzero"/></g><path fill="#f2ba77" d="M 223.800781 291.535156 C 231.75 288.882812 239.289062 285.382812 246.308594 281.160156 C 250.996094 274.707031 252.792969 270.457031 252.792969 270.457031 C 243.84375 278.667969 233.949219 285.632812 223.800781 291.535156 " fill-opacity="1" fill-rule="nonzero"/><path fill="#eead60" d="M 252.320312 141.992188 C 252.320312 141.992188 269.207031 136.980469 284.9375 124.671875 C 283.171875 121.765625 281.269531 118.949219 279.257812 116.226562 C 271.621094 125.058594 262.421875 134.402344 252.320312 141.992188 " fill-opacity="1" fill-rule="nonzero"/><g clip-path="url(#79ba31e545)"><path fill="#be7b39" d="M 363.082031 96.277344 C 357.503906 85.105469 321.964844 90.511719 272.46875 107.898438 C 275.304688 111.0625 277.972656 114.382812 280.445312 117.859375 C 301.9375 112.441406 316.359375 112.09375 319.34375 118.070312 C 322.332031 124.050781 313.375 135.347656 296.117188 149.238281 C 274.589844 166.558594 240.140625 187.910156 199.769531 208.027344 C 159.398438 228.144531 121.601562 242.789062 94.800781 249.542969 C 73.308594 254.960938 58.886719 255.3125 55.902344 249.335938 C 52.914062 243.355469 61.871094 232.058594 79.132812 218.167969 C 77.855469 214.148438 76.796875 210.023438 75.96875 205.804688 C 32.285156 234.84375 6.585938 259.953125 12.164062 271.125 C 17.742188 282.296875 53.28125 276.894531 102.777344 259.507812 C 132.5625 249.042969 167.398438 234.246094 203.804688 216.105469 C 240.207031 197.96875 273 179.074219 299.28125 161.597656 C 342.960938 132.558594 368.664062 107.453125 363.082031 96.277344 " fill-opacity="1" fill-rule="nonzero"/></g></svg>