<svg xmlns="http://www.w3.org/2000/svg" xmlns:xlink="http://www.w3.org/1999/xlink" width="500" zoomAndPan="magnify" viewBox="0 0 375 374.999991" height="500" preserveAspectRatio="xMidYMid meet" version="1.0"><defs><g/><clipPath id="2050b85b65"><path d="M 75 75 L 300 75 L 300 300 L 75 300 Z M 75 75 " clip-rule="nonzero"/></clipPath><clipPath id="c69b9548c7"><path d="M 196.777344 -28.695312 L 378.15625 290.066406 L 178.035156 403.9375 L -3.34375 85.175781 Z M 196.777344 -28.695312 " clip-rule="nonzero"/></clipPath><clipPath id="bd0559c1af"><path d="M 196.777344 -28.695312 L 378.15625 290.066406 L 178.035156 403.9375 L -3.34375 85.175781 Z M 196.777344 -28.695312 " clip-rule="nonzero"/></clipPath><clipPath id="3125dc02cb"><path d="M 80 75 L 300 75 L 300 298 L 80 298 Z M 80 75 " clip-rule="nonzero"/></clipPath><clipPath id="82d9437836"><path d="M 196.777344 -28.695312 L 378.15625 290.066406 L 178.035156 403.9375 L -3.34375 85.175781 Z M 196.777344 -28.695312 " clip-rule="nonzero"/></clipPath><clipPath id="7f3017c92f"><path d="M 196.777344 -28.695312 L 378.15625 290.066406 L 178.035156 403.9375 L -3.34375 85.175781 Z M 196.777344 -28.695312 " clip-rule="nonzero"/></clipPath><clipPath id="7d3bb8ed60"><path d="M 23 54 L 353 54 L 353 320 L 23 320 Z M 23 54 " clip-rule="nonzero"/></clipPath><clipPath id="27340d3690"><path d="M 196.777344 -28.695312 L 378.15625 290.066406 L 178.035156 403.9375 L -3.34375 85.175781 Z M 196.777344 -28.695312 " clip-rule="nonzero"/></clipPath><clipPath id="2e2ddd3e6b"><path d="M 196.777344 -28.695312 L 378.15625 290.066406 L 178.035156 403.9375 L -3.34375 85.175781 Z M 196.777344 -28.695312 " clip-rule="nonzero"/></clipPath><clipPath id="fb4810f900"><path d="M 47 70 L 333 70 L 333 300 L 47 300 Z M 47 70 " clip-rule="nonzero"/></clipPath><clipPath id="226c400d7c"><path d="M 196.777344 -28.695312 L 378.15625 290.066406 L 178.035156 403.9375 L -3.34375 85.175781 Z M 196.777344 -28.695312 " clip-rule="nonzero"/></clipPath><clipPath id="85e5c6a17d"><path d="M 196.777344 -28.695312 L 378.15625 290.066406 L 178.035156 403.9375 L -3.34375 85.175781 Z M 196.777344 -28.695312 " clip-rule="nonzero"/></clipPath></defs><g fill="#000000" fill-opacity="1"><g transform="translate(176.09179, 166.86686)"><g><path d="M 2.28125 -2.796875 C 2.28125 -3.890625 2.570312 -4.710938 3.15625 -5.265625 C 3.75 -5.828125 4.601562 -6.109375 5.71875 -6.109375 C 6.800781 -6.109375 7.640625 -5.820312 8.234375 -5.25 C 8.828125 -4.675781 9.125 -3.859375 9.125 -2.796875 C 9.125 -1.765625 8.820312 -0.953125 8.21875 -0.359375 C 7.625 0.234375 6.789062 0.53125 5.71875 0.53125 C 4.625 0.53125 3.773438 0.238281 3.171875 -0.34375 C 2.578125 -0.925781 2.28125 -1.742188 2.28125 -2.796875 Z M 2.28125 -2.796875 "/></g></g></g><g fill="#000000" fill-opacity="1"><g transform="translate(175.415033, 174.755847)"><g><path d="M 17 0 L 15.84375 -2.96875 L 15.6875 -2.96875 C 14.6875 -1.707031 13.65625 -0.832031 12.59375 -0.34375 C 11.53125 0.144531 10.144531 0.390625 8.4375 0.390625 C 6.34375 0.390625 4.691406 -0.207031 3.484375 -1.40625 C 2.285156 -2.601562 1.6875 -4.3125 1.6875 -6.53125 C 1.6875 -8.84375 2.492188 -10.546875 4.109375 -11.640625 C 5.734375 -12.742188 8.179688 -13.359375 11.453125 -13.484375 L 15.234375 -13.59375 L 15.234375 -14.546875 C 15.234375 -16.765625 14.101562 -17.875 11.84375 -17.875 C 10.09375 -17.875 8.039062 -17.347656 5.6875 -16.296875 L 3.71875 -20.3125 C 6.226562 -21.625 9.015625 -22.28125 12.078125 -22.28125 C 15.003906 -22.28125 17.25 -21.640625 18.8125 -20.359375 C 20.375 -19.085938 21.15625 -17.148438 21.15625 -14.546875 L 21.15625 0 Z M 15.234375 -10.125 L 12.9375 -10.046875 C 11.195312 -9.992188 9.90625 -9.679688 9.0625 -9.109375 C 8.21875 -8.535156 7.796875 -7.660156 7.796875 -6.484375 C 7.796875 -4.804688 8.757812 -3.96875 10.6875 -3.96875 C 12.0625 -3.96875 13.160156 -4.363281 13.984375 -5.15625 C 14.816406 -5.945312 15.234375 -7.003906 15.234375 -8.328125 Z M 15.234375 -10.125 "/></g></g></g><g clip-path="url(#2050b85b65)"><g clip-path="url(#c69b9548c7)"><g clip-path="url(#bd0559c1af)"><path fill="#559eff" d="M 243.351562 284.597656 C 241.757812 285.503906 240.140625 286.371094 238.503906 287.199219 C 236.871094 288.027344 235.214844 288.8125 233.539062 289.558594 C 231.867188 290.304688 230.171875 291.007812 228.464844 291.671875 C 226.753906 292.335938 225.03125 292.957031 223.292969 293.535156 C 221.550781 294.113281 219.796875 294.648438 218.03125 295.140625 C 216.265625 295.632812 214.488281 296.082031 212.703125 296.488281 C 210.914062 296.890625 209.117188 297.253906 207.3125 297.570312 C 205.507812 297.886719 203.695312 298.160156 201.875 298.386719 C 200.054688 298.613281 198.230469 298.796875 196.402344 298.9375 C 194.574219 299.074219 192.746094 299.167969 190.914062 299.214844 C 189.082031 299.265625 187.246094 299.269531 185.414062 299.226562 C 183.582031 299.183594 181.75 299.097656 179.921875 298.96875 C 178.09375 298.835938 176.269531 298.660156 174.449219 298.4375 C 172.628906 298.21875 170.816406 297.953125 169.011719 297.640625 C 167.203125 297.332031 165.40625 296.976562 163.617188 296.578125 C 161.824219 296.179688 160.046875 295.738281 158.28125 295.253906 C 156.511719 294.769531 154.757812 294.238281 153.015625 293.667969 C 151.273438 293.097656 149.546875 292.480469 147.835938 291.824219 C 146.125 291.167969 144.429688 290.472656 142.75 289.730469 C 141.074219 288.992188 139.414062 288.210938 137.777344 287.390625 C 136.136719 286.570312 134.519531 285.707031 132.921875 284.808594 C 131.324219 283.90625 129.753906 282.96875 128.203125 281.988281 C 126.652344 281.011719 125.125 279.996094 123.625 278.945312 C 122.125 277.890625 120.648438 276.800781 119.203125 275.675781 C 117.753906 274.550781 116.335938 273.390625 114.945312 272.195312 C 113.554688 271.003906 112.195312 269.773438 110.863281 268.511719 C 109.535156 267.25 108.234375 265.957031 106.96875 264.632812 C 105.703125 263.308594 104.46875 261.953125 103.269531 260.566406 C 102.070312 259.179688 100.902344 257.765625 99.773438 256.320312 C 98.640625 254.878906 97.546875 253.410156 96.488281 251.910156 C 95.429688 250.414062 94.410156 248.894531 93.425781 247.347656 C 92.441406 245.800781 91.496094 244.230469 90.589844 242.636719 C 89.683594 241.042969 88.816406 239.429688 87.988281 237.792969 C 87.160156 236.15625 86.375 234.5 85.628906 232.824219 C 84.882812 231.152344 84.179688 229.460938 83.515625 227.75 C 82.851562 226.042969 82.230469 224.316406 81.652344 222.578125 C 81.074219 220.835938 80.539062 219.085938 80.046875 217.320312 C 79.554688 215.554688 79.105469 213.777344 78.699219 211.988281 C 78.296875 210.199219 77.933594 208.402344 77.617188 206.597656 C 77.300781 204.792969 77.027344 202.980469 76.800781 201.160156 C 76.574219 199.339844 76.390625 197.519531 76.25 195.691406 C 76.113281 193.863281 76.019531 192.03125 75.972656 190.199219 C 75.921875 188.367188 75.917969 186.535156 75.960938 184.699219 C 76.003906 182.867188 76.089844 181.039062 76.21875 179.207031 C 76.351562 177.378906 76.527344 175.554688 76.75 173.734375 C 76.96875 171.917969 77.234375 170.101562 77.546875 168.296875 C 77.855469 166.488281 78.210938 164.691406 78.609375 162.902344 C 79.003906 161.113281 79.449219 159.332031 79.933594 157.566406 C 80.417969 155.796875 80.949219 154.042969 81.519531 152.300781 C 82.089844 150.558594 82.707031 148.832031 83.363281 147.121094 C 84.019531 145.410156 84.714844 143.714844 85.457031 142.039062 C 86.195312 140.359375 86.976562 138.703125 87.796875 137.0625 C 88.617188 135.421875 89.480469 133.804688 90.378906 132.207031 C 91.28125 130.613281 92.21875 129.039062 93.199219 127.488281 C 94.175781 125.9375 95.191406 124.410156 96.242188 122.910156 C 97.296875 121.410156 98.386719 119.933594 99.511719 118.488281 C 100.636719 117.039062 101.796875 115.621094 102.988281 114.230469 C 104.183594 112.839844 105.414062 111.480469 106.675781 110.148438 C 107.9375 108.820312 109.230469 107.523438 110.554688 106.253906 C 111.878906 104.988281 113.234375 103.753906 114.621094 102.554688 C 116.007812 101.355469 117.421875 100.1875 118.867188 99.058594 C 120.308594 97.929688 121.777344 96.832031 123.273438 95.773438 C 124.773438 94.714844 126.292969 93.695312 127.839844 92.710938 C 129.386719 91.726562 130.957031 90.78125 132.550781 89.875 C 134.144531 88.96875 135.757812 88.101562 137.394531 87.273438 C 139.03125 86.449219 140.6875 85.660156 142.359375 84.914062 C 144.035156 84.167969 145.726562 83.464844 147.4375 82.800781 C 149.144531 82.136719 150.871094 81.515625 152.609375 80.9375 C 154.351562 80.359375 156.101562 79.824219 157.867188 79.332031 C 159.632812 78.839844 161.410156 78.390625 163.199219 77.988281 C 164.988281 77.582031 166.785156 77.222656 168.589844 76.902344 C 170.394531 76.585938 172.207031 76.316406 174.027344 76.085938 C 175.847656 75.859375 177.667969 75.675781 179.496094 75.539062 C 181.324219 75.398438 183.15625 75.304688 184.988281 75.257812 C 186.820312 75.210938 188.652344 75.207031 190.488281 75.246094 C 192.320312 75.289062 194.148438 75.375 195.980469 75.507812 C 197.808594 75.636719 199.632812 75.8125 201.453125 76.035156 C 203.269531 76.253906 205.085938 76.519531 206.890625 76.832031 C 208.699219 77.140625 210.496094 77.496094 212.285156 77.894531 C 214.074219 78.292969 215.855469 78.734375 217.621094 79.21875 C 219.390625 79.703125 221.144531 80.234375 222.886719 80.804688 C 224.628906 81.378906 226.355469 81.992188 228.066406 82.648438 C 229.777344 83.304688 231.472656 84.003906 233.148438 84.742188 C 234.828125 85.480469 236.484375 86.261719 238.125 87.082031 C 239.765625 87.90625 241.382812 88.765625 242.980469 89.667969 C 244.574219 90.566406 246.148438 91.503906 247.699219 92.484375 C 249.25 93.460938 250.777344 94.476562 252.277344 95.53125 C 253.777344 96.582031 255.253906 97.671875 256.699219 98.796875 C 258.148438 99.921875 259.566406 101.082031 260.957031 102.277344 C 262.347656 103.472656 263.707031 104.699219 265.039062 105.960938 C 266.367188 107.222656 267.664062 108.515625 268.933594 109.839844 C 270.199219 111.167969 271.433594 112.523438 272.632812 113.90625 C 273.832031 115.292969 274.996094 116.707031 276.128906 118.152344 C 277.257812 119.59375 278.355469 121.066406 279.414062 122.5625 C 280.472656 124.058594 281.492188 125.582031 282.476562 127.128906 C 283.460938 128.675781 284.40625 130.246094 285.3125 131.835938 C 286.21875 133.429688 287.085938 135.046875 287.914062 136.683594 C 288.738281 138.316406 289.527344 139.972656 290.273438 141.648438 C 291.019531 143.320312 291.722656 145.015625 292.386719 146.722656 C 293.050781 148.433594 293.667969 150.15625 294.25 151.894531 C 294.828125 153.636719 295.363281 155.386719 295.855469 157.15625 C 296.347656 158.921875 296.796875 160.699219 297.199219 162.484375 C 297.605469 164.273438 297.964844 166.070312 298.285156 167.875 C 298.601562 169.679688 298.871094 171.492188 299.101562 173.3125 C 299.328125 175.132812 299.511719 176.957031 299.648438 178.785156 C 299.789062 180.613281 299.882812 182.441406 299.929688 184.273438 C 299.976562 186.105469 299.980469 187.941406 299.941406 189.773438 C 299.898438 191.605469 299.8125 193.4375 299.679688 195.265625 C 299.550781 197.09375 299.375 198.917969 299.152344 200.738281 C 298.929688 202.558594 298.667969 204.371094 298.355469 206.175781 C 298.046875 207.984375 297.691406 209.78125 297.292969 211.570312 C 296.894531 213.363281 296.453125 215.140625 295.96875 216.90625 C 295.480469 218.675781 294.953125 220.429688 294.382812 222.171875 C 293.808594 223.914062 293.195312 225.640625 292.539062 227.351562 C 291.882812 229.0625 291.183594 230.757812 290.445312 232.4375 C 289.707031 234.113281 288.925781 235.773438 288.105469 237.410156 C 287.28125 239.050781 286.421875 240.667969 285.519531 242.265625 C 284.621094 243.863281 283.679688 245.433594 282.703125 246.984375 C 281.726562 248.535156 280.710938 250.0625 279.65625 251.5625 C 278.605469 253.0625 277.515625 254.539062 276.390625 255.984375 C 275.265625 257.433594 274.105469 258.851562 272.910156 260.242188 C 271.714844 261.632812 270.488281 262.992188 269.226562 264.324219 C 267.964844 265.652344 266.671875 266.953125 265.347656 268.21875 C 264.019531 269.484375 262.664062 270.71875 261.28125 271.917969 C 259.894531 273.117188 258.480469 274.285156 257.035156 275.414062 C 255.59375 276.546875 254.121094 277.640625 252.625 278.699219 C 251.128906 279.757812 249.605469 280.777344 248.058594 281.761719 C 246.511719 282.746094 244.941406 283.691406 243.351562 284.597656 Z M 243.351562 284.597656 " fill-opacity="1" fill-rule="nonzero"/></g></g></g><g clip-path="url(#3125dc02cb)"><g clip-path="url(#82d9437836)"><g clip-path="url(#7f3017c92f)"><path fill="#4293ff" d="M 104.441406 141.101562 C 98.726562 132.480469 98.492188 124.128906 101.375 116.292969 C 97.414062 121.125 94.058594 126.328125 91 131.695312 C 92.363281 140.210938 95.511719 148.300781 106.636719 153.410156 C 106.304688 148.019531 105.855469 143.246094 104.441406 141.101562 Z M 299.804688 184.886719 C 297.050781 186.996094 294.285156 185.773438 292.613281 179.9375 C 289.78125 170.042969 276.261719 167.636719 266.09375 167.621094 C 246.101562 167.585938 208.867188 141.6875 221.933594 134.214844 C 228.109375 130.6875 196.375 107.15625 200.300781 99.605469 C 204.003906 92.472656 195.289062 82.414062 200.980469 76.066406 C 181.046875 73.730469 160.328125 76.675781 141.050781 85.582031 C 136.46875 92.734375 133.855469 100.089844 134.164062 105.796875 C 134.578125 113.515625 139.554688 147.632812 148.839844 147.75 C 164.324219 147.941406 179.324219 193.421875 184.878906 188.972656 C 195.515625 180.449219 199.542969 209.878906 219.519531 209.910156 C 229.691406 209.933594 241.027344 216.148438 243.867188 226.054688 C 247.183594 237.621094 271.742188 240.242188 292.625 227.105469 C 297.734375 213.699219 300.097656 199.339844 299.804688 184.886719 Z M 169.023438 297.640625 C 165.761719 295.421875 162.878906 293.050781 161.003906 290.453125 C 147.144531 271.246094 128.585938 275.949219 123.523438 260.652344 C 120.917969 252.773438 102.957031 250.21875 95.917969 239.605469 C 92.367188 234.261719 86.917969 226.78125 80.75 219.476562 C 83.136719 227.375 86.335938 235.160156 90.589844 242.636719 C 107.847656 272.960938 137.117188 292.148438 169.023438 297.640625 Z M 169.023438 297.640625 " fill-opacity="1" fill-rule="nonzero"/></g></g></g><g clip-path="url(#7d3bb8ed60)"><g clip-path="url(#27340d3690)"><g clip-path="url(#2e2ddd3e6b)"><path fill="#3c85ff" d="M 299.925781 186.492188 C 299.992188 197.941406 298.261719 209.265625 294.917969 220.121094 C 309.253906 241.988281 311.785156 258.851562 298.855469 264.679688 C 292.097656 267.730469 281.789062 267.34375 269.273438 264.265625 C 238.132812 256.578125 192.925781 231.671875 151.820312 197.683594 C 123.253906 174.058594 102.105469 150.550781 90.875 131.535156 C 79.445312 112.1875 78.292969 97.5 90.183594 92.132812 C 97.996094 88.605469 110.523438 89.625 125.789062 94.195312 C 128.011719 92.699219 130.203125 91.210938 132.550781 89.875 C 140.273438 85.484375 148.3125 82.222656 156.492188 79.820312 C 107.046875 56.109375 62.632812 47.632812 39.308594 60.90625 C 7.5625 78.972656 24.554688 131.515625 75.976562 187.980469 C 87.902344 201.078125 101.683594 214.390625 117.148438 227.523438 C 150.269531 255.679688 185.988281 278.609375 219.425781 294.65625 C 268.863281 318.359375 313.277344 326.832031 336.601562 313.5625 C 368.339844 295.503906 351.355469 242.953125 299.925781 186.492188 Z M 299.925781 186.492188 " fill-opacity="1" fill-rule="nonzero"/></g></g></g><g clip-path="url(#fb4810f900)"><g clip-path="url(#226c400d7c)"><g clip-path="url(#85e5c6a17d)"><path fill="#4293ff" d="M 127.164062 81.492188 C 116.847656 78.417969 106.199219 76.921875 95.742188 76.714844 C 85.445312 76.667969 74.554688 77.839844 67.050781 82.867188 C 59.4375 87.621094 58.148438 96.152344 60.535156 105.351562 C 62.996094 114.484375 67.480469 123.636719 73.132812 132.339844 C 84.109375 149.742188 97.269531 165.96875 112.175781 180.519531 C 126.742188 195.417969 142.96875 208.6875 159.800781 221.089844 C 193.519531 245.871094 230.914062 265.8125 270.390625 280.273438 C 275.332031 281.898438 280.296875 283.929688 285.191406 285.398438 C 289.984375 286.683594 295.035156 287.59375 299.894531 288 C 309.589844 288.773438 319.347656 286.886719 323.042969 278.867188 C 326.839844 270.800781 325.085938 259.6875 321.90625 249.949219 C 318.527344 240.050781 313.585938 230.457031 307.21875 221.789062 C 314.773438 229.445312 321.367188 238.289062 326.09375 248.265625 C 330.59375 258.121094 334.613281 269.59375 330.558594 281.976562 C 328.523438 288.078125 323.238281 293.359375 317.378906 295.792969 C 311.519531 298.4375 305.390625 299.082031 299.578125 299.136719 C 293.722656 299.117188 288.097656 298.554688 282.410156 297.515625 C 276.90625 296.402344 271.660156 295.085938 266.265625 293.78125 C 223.820312 282.597656 183.617188 263.195312 147.933594 237.449219 C 112.507812 211.617188 80.125 179.933594 59.34375 140.089844 C 54.238281 130.265625 49.382812 119.761719 47.570312 107.789062 C 46.707031 101.84375 46.671875 95.257812 49.050781 88.867188 C 51.289062 82.425781 56.421875 77.019531 62.148438 74.316406 C 73.699219 68.925781 85.386719 69.578125 96.230469 71.179688 C 107.128906 72.984375 117.609375 76.453125 127.164062 81.492188 Z M 127.164062 81.492188 " fill-opacity="1" fill-rule="nonzero"/></g></g></g></svg>