<svg xmlns="http://www.w3.org/2000/svg" xmlns:xlink="http://www.w3.org/1999/xlink" width="500" zoomAndPan="magnify" viewBox="0 0 375 374.999991" height="500" preserveAspectRatio="xMidYMid meet" version="1.0"><defs><filter x="0%" y="0%" width="100%" height="100%" id="e129b00905"><feColorMatrix values="0 0 0 0 1 0 0 0 0 1 0 0 0 0 1 0 0 0 1 0" color-interpolation-filters="sRGB"/></filter><clipPath id="6ccbb6fe58"><path d="M 69.789062 72.460938 L 300.039062 72.460938 L 300.039062 302.710938 L 69.789062 302.710938 Z M 69.789062 72.460938 " clip-rule="nonzero"/></clipPath><clipPath id="d6cc10c264"><path d="M 69.789062 150 L 300.039062 150 L 300.039062 219 L 69.789062 219 Z M 69.789062 150 " clip-rule="nonzero"/></clipPath><clipPath id="a02747dc72"><path d="M 96 259 L 202 259 L 202 302.710938 L 96 302.710938 Z M 96 259 " clip-rule="nonzero"/></clipPath><clipPath id="013f1e9a30"><path d="M 59 61.667969 L 310.835938 61.667969 L 310.835938 313.667969 L 59 313.667969 Z M 59 61.667969 " clip-rule="nonzero"/></clipPath><clipPath id="22818f98ee"><path d="M 61 189 L 310.835938 189 L 310.835938 269 L 61 269 Z M 61 189 " clip-rule="nonzero"/></clipPath><clipPath id="d78a16c2b7"><path d="M 132 263 L 286 263 L 286 313.667969 L 132 313.667969 Z M 132 263 " clip-rule="nonzero"/></clipPath><clipPath id="d7a25058f6"><path d="M 58.835938 61.667969 L 310.835938 61.667969 L 310.835938 313.667969 L 58.835938 313.667969 Z M 58.835938 61.667969 " clip-rule="nonzero"/></clipPath><mask id="76aa3ade4f"><g filter="url(#e129b00905)"><rect x="-37.5" width="450" fill="#000000" y="-37.499999" height="449.999989" fill-opacity="0.31"/></g></mask><clipPath id="118dd71db2"><rect x="0" width="66" y="0" height="49"/></clipPath></defs><g clip-path="url(#6ccbb6fe58)"><path fill="#fa9f5e" d="M 300.039062 187.578125 C 300.039062 189.460938 299.996094 191.347656 299.902344 193.226562 C 299.808594 195.109375 299.671875 196.988281 299.484375 198.863281 C 299.300781 200.738281 299.070312 202.605469 298.792969 204.46875 C 298.519531 206.332031 298.195312 208.1875 297.828125 210.039062 C 297.460938 211.886719 297.046875 213.722656 296.589844 215.550781 C 296.132812 217.378906 295.628906 219.191406 295.082031 220.996094 C 294.535156 222.796875 293.945312 224.585938 293.3125 226.359375 C 292.675781 228.136719 292 229.890625 291.277344 231.632812 C 290.558594 233.375 289.792969 235.09375 288.988281 236.796875 C 288.183594 238.5 287.335938 240.183594 286.449219 241.84375 C 285.558594 243.507812 284.632812 245.144531 283.664062 246.761719 C 282.695312 248.378906 281.6875 249.96875 280.640625 251.535156 C 279.59375 253.101562 278.507812 254.640625 277.386719 256.15625 C 276.265625 257.667969 275.105469 259.152344 273.910156 260.609375 C 272.714844 262.066406 271.484375 263.492188 270.21875 264.886719 C 268.953125 266.285156 267.65625 267.648438 266.324219 268.980469 C 264.992188 270.3125 263.628906 271.609375 262.230469 272.875 C 260.835938 274.140625 259.410156 275.371094 257.953125 276.566406 C 256.496094 277.761719 255.011719 278.921875 253.5 280.042969 C 251.984375 281.164062 250.445312 282.25 248.878906 283.296875 C 247.3125 284.34375 245.722656 285.351562 244.105469 286.320312 C 242.488281 287.289062 240.851562 288.214844 239.1875 289.105469 C 237.527344 289.992188 235.84375 290.839844 234.140625 291.644531 C 232.4375 292.449219 230.71875 293.214844 228.976562 293.933594 C 227.234375 294.65625 225.480469 295.332031 223.703125 295.96875 C 221.929688 296.601562 220.140625 297.191406 218.339844 297.738281 C 216.535156 298.285156 214.722656 298.789062 212.894531 299.246094 C 211.066406 299.703125 209.230469 300.117188 207.382812 300.484375 C 205.535156 300.851562 203.679688 301.175781 201.8125 301.449219 C 199.949219 301.726562 198.082031 301.957031 196.207031 302.144531 C 194.332031 302.328125 192.453125 302.464844 190.570312 302.558594 C 188.6875 302.652344 186.804688 302.695312 184.921875 302.695312 C 183.039062 302.695312 181.15625 302.652344 179.273438 302.558594 C 177.390625 302.464844 175.515625 302.328125 173.640625 302.144531 C 171.765625 301.957031 169.894531 301.726562 168.03125 301.449219 C 166.167969 301.175781 164.3125 300.851562 162.464844 300.484375 C 160.617188 300.117188 158.777344 299.703125 156.949219 299.246094 C 155.125 298.789062 153.308594 298.285156 151.503906 297.738281 C 149.703125 297.191406 147.914062 296.601562 146.140625 295.96875 C 144.367188 295.332031 142.609375 294.65625 140.867188 293.933594 C 139.128906 293.214844 137.40625 292.449219 135.703125 291.644531 C 134 290.839844 132.316406 289.992188 130.65625 289.105469 C 128.996094 288.214844 127.355469 287.289062 125.738281 286.320312 C 124.125 285.351562 122.53125 284.34375 120.964844 283.296875 C 119.398438 282.25 117.859375 281.164062 116.347656 280.042969 C 114.832031 278.921875 113.347656 277.761719 111.890625 276.566406 C 110.4375 275.371094 109.011719 274.140625 107.613281 272.875 C 106.21875 271.609375 104.855469 270.3125 103.523438 268.980469 C 102.191406 267.648438 100.890625 266.285156 99.625 264.886719 C 98.359375 263.492188 97.128906 262.066406 95.933594 260.609375 C 94.738281 259.152344 93.582031 257.667969 92.457031 256.15625 C 91.335938 254.640625 90.253906 253.101562 89.207031 251.535156 C 88.160156 249.96875 87.152344 248.378906 86.183594 246.761719 C 85.214844 245.144531 84.285156 243.507812 83.398438 241.84375 C 82.507812 240.183594 81.664062 238.5 80.855469 236.796875 C 80.050781 235.09375 79.289062 233.375 78.566406 231.632812 C 77.847656 229.890625 77.167969 228.132812 76.535156 226.359375 C 75.898438 224.585938 75.308594 222.796875 74.761719 220.996094 C 74.214844 219.191406 73.710938 217.378906 73.253906 215.550781 C 72.796875 213.722656 72.382812 211.886719 72.015625 210.039062 C 71.648438 208.1875 71.328125 206.332031 71.050781 204.46875 C 70.773438 202.605469 70.542969 200.738281 70.359375 198.863281 C 70.175781 196.988281 70.035156 195.109375 69.941406 193.226562 C 69.851562 191.347656 69.804688 189.460938 69.804688 187.578125 C 69.804688 185.695312 69.851562 183.8125 69.941406 181.929688 C 70.035156 180.046875 70.175781 178.171875 70.359375 176.296875 C 70.542969 174.421875 70.773438 172.550781 71.050781 170.6875 C 71.328125 168.824219 71.648438 166.96875 72.015625 165.121094 C 72.382812 163.273438 72.796875 161.433594 73.253906 159.605469 C 73.710938 157.78125 74.214844 155.964844 74.761719 154.160156 C 75.308594 152.359375 75.898438 150.570312 76.535156 148.796875 C 77.167969 147.023438 77.847656 145.265625 78.566406 143.523438 C 79.289062 141.785156 80.050781 140.0625 80.855469 138.359375 C 81.664062 136.65625 82.507812 134.972656 83.398438 133.3125 C 84.285156 131.652344 85.214844 130.011719 86.183594 128.394531 C 87.152344 126.78125 88.160156 125.1875 89.207031 123.621094 C 90.253906 122.054688 91.335938 120.515625 92.457031 119.003906 C 93.582031 117.488281 94.738281 116.003906 95.933594 114.546875 C 97.128906 113.09375 98.359375 111.667969 99.625 110.269531 C 100.890625 108.875 102.191406 107.511719 103.523438 106.179688 C 104.855469 104.847656 106.21875 103.546875 107.613281 102.28125 C 109.011719 101.015625 110.4375 99.785156 111.890625 98.589844 C 113.347656 97.394531 114.832031 96.238281 116.347656 95.113281 C 117.859375 93.992188 119.398438 92.910156 120.964844 91.863281 C 122.53125 90.816406 124.125 89.808594 125.738281 88.839844 C 127.355469 87.871094 128.996094 86.941406 130.65625 86.054688 C 132.316406 85.164062 134 84.320312 135.703125 83.511719 C 137.40625 82.707031 139.128906 81.945312 140.867188 81.222656 C 142.609375 80.503906 144.367188 79.824219 146.140625 79.191406 C 147.914062 78.554688 149.703125 77.964844 151.503906 77.417969 C 153.308594 76.871094 155.125 76.367188 156.949219 75.910156 C 158.777344 75.453125 160.617188 75.039062 162.464844 74.671875 C 164.3125 74.304688 166.167969 73.984375 168.03125 73.707031 C 169.894531 73.429688 171.765625 73.199219 173.636719 73.015625 C 175.511719 72.832031 177.390625 72.691406 179.273438 72.597656 C 181.15625 72.507812 183.039062 72.460938 184.921875 72.460938 C 186.804688 72.460938 188.6875 72.507812 190.570312 72.597656 C 192.453125 72.691406 194.332031 72.832031 196.207031 73.015625 C 198.082031 73.199219 199.949219 73.429688 201.8125 73.707031 C 203.679688 73.984375 205.535156 74.304688 207.382812 74.671875 C 209.230469 75.039062 211.066406 75.453125 212.894531 75.910156 C 214.722656 76.367188 216.535156 76.871094 218.339844 77.417969 C 220.140625 77.964844 221.929688 78.554688 223.703125 79.191406 C 225.480469 79.824219 227.234375 80.503906 228.976562 81.222656 C 230.71875 81.945312 232.4375 82.707031 234.140625 83.511719 C 235.84375 84.320312 237.527344 85.164062 239.1875 86.054688 C 240.851562 86.941406 242.488281 87.871094 244.105469 88.839844 C 245.722656 89.808594 247.3125 90.816406 248.878906 91.863281 C 250.445312 92.910156 251.984375 93.992188 253.5 95.113281 C 255.011719 96.238281 256.496094 97.394531 257.953125 98.589844 C 259.410156 99.785156 260.835938 101.015625 262.230469 102.28125 C 263.628906 103.546875 264.992188 104.847656 266.324219 106.179688 C 267.65625 107.511719 268.953125 108.875 270.21875 110.269531 C 271.484375 111.667969 272.714844 113.09375 273.910156 114.546875 C 275.105469 116.003906 276.265625 117.488281 277.386719 119.003906 C 278.507812 120.515625 279.59375 122.054688 280.640625 123.621094 C 281.6875 125.1875 282.695312 126.78125 283.664062 128.394531 C 284.632812 130.011719 285.558594 131.652344 286.449219 133.3125 C 287.335938 134.972656 288.183594 136.65625 288.988281 138.359375 C 289.792969 140.0625 290.558594 141.785156 291.277344 143.523438 C 292 145.265625 292.675781 147.023438 293.3125 148.796875 C 293.945312 150.570312 294.535156 152.359375 295.082031 154.160156 C 295.628906 155.964844 296.132812 157.78125 296.589844 159.605469 C 297.046875 161.433594 297.460938 163.273438 297.828125 165.121094 C 298.195312 166.96875 298.519531 168.824219 298.792969 170.6875 C 299.070312 172.550781 299.300781 174.421875 299.484375 176.296875 C 299.671875 178.171875 299.808594 180.046875 299.902344 181.929688 C 299.996094 183.8125 300.039062 185.695312 300.039062 187.578125 Z M 300.039062 187.578125 " fill-opacity="1" fill-rule="nonzero"/></g><path fill="#f38333" d="M 112.132812 98.390625 C 120.070312 100.125 128.007812 101.875 135.964844 102.832031 C 144.117188 103.835938 152.40625 102.636719 160.511719 103.820312 C 174.746094 105.90625 188.863281 108.203125 203.050781 110.390625 C 211.25 111.640625 253.910156 110.148438 255.644531 123.714844 C 256.738281 132.125 219.402344 137.402344 211.917969 141.601562 C 187.84375 155.121094 181 154.679688 153.074219 150.832031 C 148.421875 150.195312 143.570312 148.339844 138.839844 148.414062 C 124.890625 148.660156 114.292969 157.648438 99.886719 154.484375 C 95.417969 153.496094 86.246094 149.007812 78.550781 143.519531 C 85.894531 125.828125 97.515625 110.347656 112.132812 98.390625 Z M 112.132812 98.390625 " fill-opacity="1" fill-rule="evenodd"/><g clip-path="url(#d6cc10c264)"><path fill="#da6c1e" d="M 294.003906 150.742188 C 297.925781 162.300781 300.039062 174.695312 300.039062 187.5625 L 300.039062 189.617188 C 298.6875 189.828125 297.425781 190.058594 296.238281 190.347656 C 283.859375 193.34375 274.566406 197.785156 261.589844 197.207031 C 244.390625 196.414062 230.882812 195.09375 213.941406 201.25 C 198.09375 207.015625 183.859375 218.652344 166.320312 218.40625 C 153.394531 218.226562 146.503906 211.046875 135.996094 205.238281 C 128.558594 201.128906 119.355469 199.121094 110.992188 198.042969 C 98.441406 196.414062 83.707031 201.207031 70.441406 199.835938 C 70.015625 195.808594 69.789062 191.714844 69.789062 187.5625 C 69.789062 177.28125 71.144531 167.320312 73.683594 157.828125 C 87.203125 158.636719 99.660156 163.671875 113.058594 166.636719 C 121.972656 168.597656 131.21875 168.855469 140.3125 169.402344 C 167.050781 171.03125 192.191406 165.085938 218.351562 161.648438 C 232.542969 159.777344 246.746094 163.503906 260.890625 163.121094 C 272.421875 162.804688 283.023438 155.578125 294.003906 150.742188 Z M 294.003906 150.742188 " fill-opacity="1" fill-rule="evenodd"/></g><path fill="#f38333" d="M 294.167969 223.914062 C 284.832031 251.972656 264.984375 275.246094 239.296875 289.054688 C 231.859375 285.34375 224.9375 280.113281 217.152344 277.34375 C 202.488281 272.125 147.523438 265.402344 150.183594 245.664062 C 153.058594 224.6875 199.234375 242.710938 213.894531 240.613281 C 225.394531 238.96875 235.449219 232.082031 246.929688 230.894531 C 258.976562 229.648438 270.125 233.785156 281.789062 229.800781 C 286.230469 228.308594 290.292969 226.226562 294.167969 223.914062 Z M 294.167969 223.914062 " fill-opacity="1" fill-rule="evenodd"/><path fill="#da6c1e" d="M 73.726562 217.464844 C 85.941406 216.964844 97.515625 216.003906 111.84375 218.195312 C 115.765625 218.789062 119.613281 219.320312 123.539062 219.519531 C 123.75 219.535156 128.390625 219.945312 128.269531 220.125 C 125.273438 225.980469 118.292969 227.851562 113.273438 231.351562 C 108.070312 234.96875 97.394531 243.289062 87.035156 248.140625 C 81.210938 238.742188 76.679688 228.429688 73.726562 217.464844 Z M 73.726562 217.464844 " fill-opacity="1" fill-rule="evenodd"/><g clip-path="url(#a02747dc72)"><path fill="#fcbb8d" d="M 96.832031 261.691406 C 98.6875 261.023438 100.542969 260.445312 102.414062 260.035156 C 121.683594 255.671875 139.035156 269.117188 155.859375 275.792969 C 164.695312 279.289062 172.542969 280.414062 180.832031 285.585938 C 185.011719 288.203125 195.234375 294.5 201.910156 301.449219 C 196.375 302.269531 190.71875 302.695312 184.921875 302.695312 C 149.605469 302.695312 117.957031 286.757812 96.832031 261.691406 Z M 96.832031 261.691406 " fill-opacity="1" fill-rule="evenodd"/></g><path fill="#fcbb8d" d="M 228.011719 80.8125 C 242.792969 86.789062 256.054688 95.730469 267.050781 106.910156 C 257.210938 107.867188 244.191406 107.046875 238.246094 104.8125 C 232.039062 102.453125 227.339844 98.667969 220.421875 97.8125 C 216.953125 97.386719 192.875 97.191406 195.113281 91.152344 C 197.347656 85.113281 206.992188 84.976562 212.132812 84.019531 C 217.5 83.03125 222.777344 81.996094 228.011719 80.8125 Z M 228.011719 80.8125 " fill-opacity="1" fill-rule="evenodd"/><path fill="#fcbb8d" d="M 282.003906 125.738281 C 285.089844 130.515625 287.796875 135.53125 290.109375 140.75 C 283.171875 142.742188 274.230469 142.390625 268.558594 142.453125 C 266.488281 142.484375 259.722656 142.332031 259.765625 138.816406 C 259.765625 136.109375 270.792969 133.128906 272.695312 131.746094 C 275.265625 129.828125 277.804688 128.050781 280.632812 126.5 C 281.121094 126.242188 281.59375 125.980469 282.003906 125.738281 Z M 282.003906 125.738281 " fill-opacity="1" fill-rule="evenodd"/><g clip-path="url(#013f1e9a30)"><path fill="#f79320" d="M 310.726562 187.660156 C 310.726562 190.664062 310.636719 193.753906 310.363281 196.660156 C 310 202.117188 309.273438 207.390625 308.277344 212.570312 C 304.460938 231.480469 296.472656 248.84375 285.214844 263.664062 C 262.242188 294.027344 225.925781 313.664062 184.886719 313.664062 C 166.273438 313.664062 148.660156 309.660156 132.859375 302.390625 C 115.425781 294.480469 100.175781 282.664062 88.007812 268.117188 C 74.660156 251.933594 65.21875 232.480469 61.222656 211.027344 C 59.769531 203.480469 59.042969 195.664062 59.042969 187.660156 C 59.042969 180.300781 59.679688 173.117188 60.949219 166.117188 C 63.585938 150.480469 69.121094 135.753906 77.023438 122.664062 C 99.085938 86.117188 139.125 61.664062 184.886719 61.664062 C 204.316406 61.664062 222.65625 66.027344 239.089844 73.933594 C 244.085938 76.296875 248.894531 79.027344 253.527344 82.117188 C 261.609375 87.300781 268.960938 93.390625 275.5 100.300781 C 283.398438 108.390625 290.117188 117.570312 295.566406 127.574219 C 298.832031 133.664062 301.738281 140.117188 303.917969 146.84375 C 306.460938 153.933594 308.183594 161.390625 309.367188 169.027344 C 310.273438 175.117188 310.726562 181.296875 310.726562 187.660156 Z M 310.726562 187.660156 " fill-opacity="1" fill-rule="nonzero"/></g><path fill="#fcb54b" d="M 253.527344 82.117188 C 250.257812 83.296875 247.171875 84.933594 244.628906 87.300781 C 238.726562 92.753906 236.546875 101.570312 230.101562 106.480469 C 218.660156 115.296875 200.867188 106.753906 187.972656 113.390625 C 179.890625 117.570312 175.535156 126.933594 167.726562 131.570312 C 151.109375 141.570312 128.320312 126.296875 110.796875 134.574219 C 101.898438 138.753906 96.722656 148.027344 89.734375 154.9375 C 82.105469 162.390625 71.300781 167.296875 60.949219 166.117188 C 63.585938 150.480469 69.121094 135.753906 77.023438 122.664062 C 85.195312 122.84375 93.363281 123.296875 101.171875 121.207031 C 118.425781 116.480469 130.953125 99.296875 148.75 97.117188 C 159.644531 95.753906 171.449219 100.207031 181.34375 95.300781 C 185.519531 93.207031 188.878906 89.664062 192.695312 87.027344 C 200.683594 81.570312 210.671875 80.207031 220.207031 78.390625 C 226.558594 77.207031 232.824219 75.664062 239.089844 73.933594 C 244.085938 76.296875 248.894531 79.027344 253.527344 82.117188 Z M 253.527344 82.117188 " fill-opacity="1" fill-rule="nonzero"/><path fill="#db802f" d="M 309.367188 169.027344 C 308.09375 169.117188 306.730469 169.117188 305.460938 169.027344 C 292.929688 168.117188 280.128906 162.390625 268.324219 166.753906 C 261.152344 169.390625 255.613281 175.570312 248.261719 177.84375 C 236.910156 181.296875 224.925781 174.664062 213.214844 175.570312 C 199.320312 176.664062 187.066406 188.117188 173.265625 186.480469 C 157.738281 184.574219 148.203125 167.390625 133.132812 163.570312 C 130.589844 162.933594 127.957031 162.660156 125.597656 161.753906 C 123.144531 160.753906 120.875 158.84375 120.421875 156.296875 C 119.695312 151.570312 125.234375 148.207031 130.046875 147.664062 C 138.125 146.570312 146.296875 148.753906 154.378906 150.300781 C 162.367188 151.753906 171.175781 152.390625 178.347656 148.480469 C 185.339844 144.660156 190.425781 136.84375 198.230469 136.027344 C 202.5 135.480469 206.765625 137.207031 210.945312 136.300781 C 214.574219 135.480469 217.390625 132.9375 220.660156 131.296875 C 230.28125 126.480469 242.449219 130.390625 252.074219 125.664062 C 257.160156 123.117188 260.882812 118.390625 264.058594 113.753906 C 266.964844 109.574219 270.867188 104.300781 275.5 100.300781 C 283.398438 108.390625 290.117188 117.570312 295.566406 127.574219 C 292.476562 128.300781 289.117188 128.660156 286.210938 129.9375 C 279.855469 132.664062 275.679688 139.207031 269.234375 141.933594 C 263.878906 144.207031 257.703125 143.480469 251.890625 143.933594 C 245.992188 144.480469 239.453125 147.027344 237.726562 152.664062 C 244.539062 156.027344 252.4375 151.84375 259.519531 149.207031 C 273.59375 143.933594 288.9375 145.117188 303.917969 146.84375 C 306.460938 153.933594 308.183594 161.390625 309.367188 169.027344 Z M 309.367188 169.027344 " fill-opacity="1" fill-rule="nonzero"/><g clip-path="url(#22818f98ee)"><path fill="#fcb54b" d="M 310.363281 196.660156 C 310 202.117188 309.273438 207.390625 308.277344 212.570312 C 307.003906 212.660156 305.824219 212.753906 304.644531 212.84375 C 297.925781 213.390625 291.023438 214.117188 285.125 217.480469 C 277.40625 222.027344 272.957031 230.390625 266.148438 236.207031 C 258.339844 242.753906 247.535156 245.480469 237.636719 243.390625 C 230.285156 241.84375 223.746094 238.027344 216.664062 235.480469 C 209.671875 233.027344 201.320312 232.117188 195.144531 236.300781 C 190.605469 239.390625 188.0625 244.660156 184.339844 248.753906 C 177.167969 256.480469 166.363281 259.390625 156.105469 261.933594 C 141.941406 265.480469 127.320312 269.027344 112.886719 267.027344 C 106.347656 266.117188 99.71875 264.117188 93.363281 265.84375 C 91.457031 266.390625 89.734375 267.207031 88.007812 268.117188 C 74.660156 251.933594 65.21875 232.480469 61.222656 211.027344 C 66.21875 206.9375 71.664062 203.300781 76.296875 200.300781 C 88.007812 192.84375 101.898438 188.027344 115.609375 189.664062 C 136.21875 192.117188 154.105469 208.296875 174.898438 207.390625 C 187.335938 206.84375 198.777344 200.027344 211.214844 199.027344 C 226.199219 197.753906 240.996094 205.117188 256.070312 203.933594 C 269.871094 202.933594 282.582031 194.84375 296.472656 194.933594 C 301.195312 195.027344 305.734375 195.9375 310.363281 196.660156 Z M 310.363281 196.660156 " fill-opacity="1" fill-rule="nonzero"/></g><path fill="#ffc587" d="M 92.921875 217.261719 C 87.753906 220 82.558594 224.5625 82.742188 230.410156 C 82.859375 234.132812 85.25 237.5 88.308594 239.621094 C 91.363281 241.742188 95.027344 242.785156 98.660156 243.582031 C 112.011719 246.503906 126 246.46875 139.339844 243.480469 C 144.816406 242.253906 150.824219 239.980469 153.015625 234.804688 C 154.726562 230.757812 153.457031 225.855469 150.589844 222.523438 C 144.84375 215.84375 131.894531 212.488281 123.515625 211.5625 C 113.0625 210.402344 102.234375 212.324219 92.921875 217.261719 Z M 92.921875 217.261719 " fill-opacity="1" fill-rule="nonzero"/><g clip-path="url(#d78a16c2b7)"><path fill="#fcb54b" d="M 285.214844 263.664062 C 262.242188 294.027344 225.925781 313.664062 184.886719 313.664062 C 166.273438 313.664062 148.660156 309.660156 132.859375 302.390625 C 133.949219 294.480469 151.199219 293.207031 156.921875 293.480469 C 166.363281 293.84375 175.714844 296.480469 185.25 296.570312 C 191.058594 296.570312 197.507812 295.390625 201.320312 290.84375 C 205.949219 285.390625 205.585938 276.207031 211.671875 272.390625 C 214.847656 270.300781 219.117188 270.480469 222.746094 271.570312 C 226.46875 272.753906 229.828125 274.664062 233.371094 276.027344 C 242.722656 279.570312 253.617188 278.933594 262.515625 274.296875 C 267.144531 271.84375 271.324219 268.300781 276.132812 265.933594 C 278.949219 264.570312 282.128906 263.664062 285.214844 263.664062 Z M 285.214844 263.664062 " fill-opacity="1" fill-rule="nonzero"/></g><g clip-path="url(#d7a25058f6)"><path fill="#4b3dff" d="M 310.625 187.660156 C 310.625 257.207031 254.238281 313.664062 184.78125 313.664062 C 161.175781 313.664062 139.203125 307.207031 120.316406 295.84375 C 103.25 285.660156 88.722656 271.390625 78.097656 254.480469 L 78.097656 254.390625 C 69.925781 241.390625 64.117188 226.84375 61.121094 211.207031 C 59.667969 203.570312 58.941406 195.664062 58.941406 187.660156 C 58.941406 185.027344 59.03125 182.390625 59.214844 179.84375 C 59.484375 184.300781 60.03125 188.753906 60.847656 193.117188 C 63.480469 206.84375 68.566406 219.660156 75.738281 231.027344 L 75.738281 231.117188 C 85.089844 246.027344 97.890625 258.570312 112.871094 267.480469 C 129.488281 277.480469 148.828125 283.207031 169.527344 283.207031 C 230.632812 283.207031 280.207031 233.570312 280.207031 172.390625 C 280.207031 168.300781 279.933594 164.300781 279.570312 160.390625 C 275.394531 121.84375 251.515625 89.207031 218.195312 73.027344 C 205.664062 66.84375 191.773438 62.933594 177.0625 61.933594 C 179.605469 61.753906 182.238281 61.664062 184.78125 61.664062 C 204.667969 61.664062 223.460938 66.300781 240.167969 74.570312 C 278.027344 93.027344 305.175781 130.117188 309.898438 173.933594 C 310.351562 178.480469 310.625 183.027344 310.625 187.660156 Z M 310.625 187.660156 " fill-opacity="0.13" fill-rule="nonzero"/></g><g mask="url(#76aa3ade4f)"><g transform="matrix(1, 0, 0, 1, 112, 75)"><g clip-path="url(#118dd71db2)"><path fill="#ffffff" d="M 59.988281 10.3125 C 60.15625 10.636719 60.277344 10.980469 60.355469 11.347656 C 60.4375 11.714844 60.46875 12.101562 60.460938 12.507812 C 60.449219 12.914062 60.394531 13.339844 60.292969 13.785156 C 60.195312 14.226562 60.050781 14.683594 59.863281 15.160156 C 59.675781 15.636719 59.445312 16.125 59.171875 16.625 C 58.898438 17.128906 58.585938 17.640625 58.226562 18.164062 C 57.871094 18.691406 57.472656 19.222656 57.035156 19.765625 C 56.601562 20.308594 56.125 20.855469 55.613281 21.410156 C 55.101562 21.964844 54.550781 22.523438 53.96875 23.082031 C 53.382812 23.644531 52.769531 24.207031 52.121094 24.769531 C 51.46875 25.332031 50.792969 25.890625 50.085938 26.449219 C 49.375 27.011719 48.644531 27.5625 47.882812 28.113281 C 47.121094 28.664062 46.339844 29.203125 45.535156 29.738281 C 44.730469 30.273438 43.90625 30.796875 43.066406 31.3125 C 42.222656 31.828125 41.367188 32.332031 40.496094 32.820312 C 39.625 33.3125 38.742188 33.785156 37.851562 34.246094 C 36.960938 34.707031 36.0625 35.152344 35.160156 35.578125 C 34.253906 36.003906 33.351562 36.414062 32.441406 36.800781 C 31.535156 37.191406 30.632812 37.558594 29.730469 37.90625 C 28.828125 38.253906 27.933594 38.578125 27.046875 38.878906 C 26.160156 39.179688 25.28125 39.460938 24.417969 39.714844 C 23.554688 39.96875 22.703125 40.195312 21.871094 40.398438 C 21.035156 40.601562 20.222656 40.78125 19.425781 40.929688 C 18.632812 41.082031 17.859375 41.207031 17.113281 41.304688 C 16.363281 41.402344 15.640625 41.472656 14.949219 41.511719 C 14.253906 41.554688 13.589844 41.570312 12.957031 41.558594 C 12.320312 41.546875 11.722656 41.503906 11.152344 41.4375 C 10.585938 41.367188 10.054688 41.273438 9.558594 41.152344 C 9.066406 41.03125 8.609375 40.878906 8.191406 40.703125 C 7.773438 40.53125 7.394531 40.328125 7.058594 40.101562 C 6.71875 39.875 6.425781 39.621094 6.171875 39.347656 C 5.917969 39.070312 5.707031 38.769531 5.542969 38.445312 C 5.375 38.125 5.253906 37.777344 5.175781 37.410156 C 5.097656 37.042969 5.0625 36.65625 5.074219 36.25 C 5.082031 35.84375 5.136719 35.417969 5.238281 34.976562 C 5.335938 34.535156 5.480469 34.074219 5.667969 33.597656 C 5.855469 33.125 6.085938 32.636719 6.359375 32.132812 C 6.632812 31.632812 6.949219 31.117188 7.304688 30.59375 C 7.660156 30.070312 8.058594 29.535156 8.496094 28.992188 C 8.933594 28.453125 9.40625 27.902344 9.917969 27.347656 C 10.433594 26.792969 10.980469 26.238281 11.5625 25.675781 C 12.148438 25.113281 12.765625 24.554688 13.414062 23.992188 C 14.0625 23.425781 14.738281 22.867188 15.449219 22.308594 C 16.15625 21.75 16.890625 21.195312 17.648438 20.644531 C 18.410156 20.097656 19.191406 19.554688 19.996094 19.019531 C 20.800781 18.484375 21.625 17.960938 22.46875 17.445312 C 23.308594 16.929688 24.164062 16.429688 25.035156 15.9375 C 25.90625 15.449219 26.789062 14.972656 27.679688 14.511719 C 28.570312 14.050781 29.46875 13.609375 30.375 13.179688 C 31.277344 12.753906 32.183594 12.347656 33.089844 11.957031 C 33.996094 11.570312 34.902344 11.199219 35.800781 10.855469 C 36.703125 10.507812 37.597656 10.183594 38.484375 9.878906 C 39.375 9.578125 40.25 9.300781 41.113281 9.046875 C 41.980469 8.792969 42.828125 8.5625 43.664062 8.359375 C 44.496094 8.15625 45.308594 7.980469 46.105469 7.828125 C 46.898438 7.675781 47.671875 7.554688 48.421875 7.457031 C 49.167969 7.359375 49.890625 7.289062 50.585938 7.246094 C 51.277344 7.203125 51.941406 7.1875 52.578125 7.203125 C 53.210938 7.214844 53.8125 7.253906 54.378906 7.324219 C 54.945312 7.390625 55.476562 7.484375 55.972656 7.609375 C 56.464844 7.730469 56.921875 7.878906 57.339844 8.054688 C 57.757812 8.230469 58.136719 8.429688 58.476562 8.660156 C 58.8125 8.886719 59.105469 9.136719 59.359375 9.414062 C 59.613281 9.691406 59.824219 9.988281 59.988281 10.3125 Z M 59.988281 10.3125 " fill-opacity="1" fill-rule="nonzero"/></g></g></g></svg>